<svg width="24" height="24" viewBox="0 0 24 24" fill="none" xmlns="http://www.w3.org/2000/svg">
<path d="M12 2.25C9.41414 2.25 6.93419 3.27723 5.10571 5.10571C3.27723 6.93419 2.25 9.41414 2.25 12C2.25 13.558 2.616 15.033 3.268 16.342C3.372 16.552 3.382 16.865 3.263 17.352C3.19998 17.598 3.12658 17.8412 3.043 18.081L3.013 18.167C2.939 18.387 2.859 18.627 2.799 18.85C2.417 20.277 3.723 21.583 5.149 21.201C5.373 21.141 5.612 21.061 5.833 20.987L5.919 20.957C6.15879 20.8734 6.402 20.8 6.648 20.737C7.135 20.617 7.448 20.627 7.658 20.732C9.00662 21.404 10.4932 21.7525 12 21.75C17.385 21.75 21.75 17.385 21.75 12C21.75 6.615 17.385 2.25 12 2.25Z" fill="white"/>
</svg>
