<svg width="24" height="24" viewBox="0 0 24 24" fill="none" xmlns="http://www.w3.org/2000/svg">
<path d="M18 3C17.2044 3 16.4413 3.31607 15.8787 3.87868C15.3161 4.44129 15 5.20435 15 6C15 6.79565 15.3161 7.55871 15.8787 8.12132C16.4413 8.68393 17.2044 9 18 9C18.7956 9 19.5587 8.68393 20.1213 8.12132C20.6839 7.55871 21 6.79565 21 6C21 5.20435 20.6839 4.44129 20.1213 3.87868C19.5587 3.31607 18.7956 3 18 3Z" fill="white"/>
<path d="M5 4C3.9 4 3 4.9 3 6V19C3 20.1 3.9 21 5 21H18C19.1 21 20 20.1 20 19V10.01C19.39 10.31 18.72 10.5 18 10.5C15.52 10.5 13.5 8.48 13.5 6C13.5 5.28 13.69 4.61 13.99 4H5Z" fill="white"/>
</svg>
