<svg width="20" height="20" viewBox="0 0 20 20" fill="none" xmlns="http://www.w3.org/2000/svg">
<path d="M4.5 2C3.83696 2 3.20107 2.26339 2.73223 2.73223C2.26339 3.20107 2 3.83696 2 4.5V13.5C2 14.163 2.26339 14.7989 2.73223 15.2678C3.20107 15.7366 3.83696 16 4.5 16H13.5C14.163 16 14.7989 15.7366 15.2678 15.2678C15.7366 14.7989 16 14.163 16 13.5V4.5C16 3.83696 15.7366 3.20107 15.2678 2.73223C14.7989 2.26339 14.163 2 13.5 2H4.5ZM9.5 6.5V8.5H11.5C11.6326 8.5 11.7598 8.55268 11.8536 8.64645C11.9473 8.74021 12 8.86739 12 9C12 9.13261 11.9473 9.25979 11.8536 9.35355C11.7598 9.44732 11.6326 9.5 11.5 9.5H9.5V11.5C9.5 11.6326 9.44732 11.7598 9.35355 11.8536C9.25979 11.9473 9.13261 12 9 12C8.86739 12 8.74021 11.9473 8.64645 11.8536C8.55268 11.7598 8.5 11.6326 8.5 11.5V9.5H6.5C6.36739 9.5 6.24021 9.44732 6.14645 9.35355C6.05268 9.25979 6 9.13261 6 9C6 8.86739 6.05268 8.74021 6.14645 8.64645C6.24021 8.55268 6.36739 8.5 6.5 8.5H8.5V6.5C8.5 6.36739 8.55268 6.24021 8.64645 6.14645C8.74021 6.05268 8.86739 6 9 6C9.13261 6 9.25979 6.05268 9.35355 6.14645C9.44732 6.24021 9.5 6.36739 9.5 6.5ZM7.5 18C6.58394 18.0001 5.70433 17.6411 5.05 17H14.5C15.163 17 15.7989 16.7366 16.2678 16.2678C16.7366 15.7989 17 15.163 17 14.5V5.05C17.619 5.682 18 6.546 18 7.5V14.5C18 15.4283 17.6313 16.3185 16.9749 16.9749C16.3185 17.6313 15.4283 18 14.5 18H7.5Z" fill="white"/>
</svg>
